<svg width="4" height="3" viewBox="0 0 4 3" fill="none" xmlns="http://www.w3.org/2000/svg">
<path id="R" d="M1.76916 0.298706C1.42622 0.298706 1.09732 0.437128 0.854826 0.683522C0.612328 0.929917 0.476074 1.2641 0.476074 1.61256C0.476074 1.96101 0.612328 2.29519 0.854826 2.54159C1.09732 2.78798 1.42622 2.92641 1.76916 2.92641C1.93897 2.92641 2.10712 2.89242 2.264 2.8264C2.42088 2.76037 2.56343 2.66359 2.6835 2.54159C2.80357 2.41959 2.89882 2.27475 2.9638 2.11534C3.02878 1.95594 3.06223 1.78509 3.06223 1.61256C3.06223 1.44002 3.02878 1.26917 2.9638 1.10977C2.89882 0.950363 2.80357 0.805525 2.6835 0.683522C2.56343 0.56152 2.42088 0.464743 2.264 0.398715C2.10712 0.332688 1.93897 0.298706 1.76916 0.298706ZM1.76916 2.66234C1.56464 2.66277 1.3646 2.60151 1.19436 2.48632C1.02413 2.37113 0.891371 2.2072 0.812908 2.01529C0.734445 1.82338 0.713794 1.61212 0.753592 1.40829C0.793389 1.20445 0.891845 1.0172 1.03647 0.870251C1.18109 0.723306 1.36538 0.62328 1.56599 0.582843C1.76661 0.542406 1.97451 0.563376 2.16339 0.6431C2.35226 0.722824 2.5136 0.857712 2.62697 1.03068C2.74033 1.20365 2.80063 1.40691 2.80021 1.61472C2.80046 1.75237 2.77395 1.88871 2.72222 2.01593C2.67049 2.14314 2.59456 2.25873 2.49876 2.35606C2.40297 2.45339 2.28922 2.53055 2.16401 2.58311C2.03881 2.63567 1.90463 2.66259 1.76916 2.66234ZM2.35285 1.34632C2.35379 1.27939 2.3407 1.21302 2.31447 1.15162C2.28825 1.09021 2.24948 1.03517 2.20073 0.990146C2.15198 0.945119 2.09438 0.911134 2.03173 0.890444C1.96908 0.869753 1.90281 0.86283 1.83732 0.870133H1.29198V2.30736H1.55614V1.83117H1.79472L2.03331 2.30736H2.31876L2.05888 1.78788C2.14459 1.75096 2.21797 1.68962 2.27014 1.61127C2.3223 1.53292 2.35103 1.4409 2.35285 1.34632ZM1.85862 1.57576H1.55614V1.11689H1.84585C1.90535 1.11579 1.96288 1.1386 2.00593 1.18036C2.04898 1.22212 2.07407 1.27945 2.07575 1.3399C2.07744 1.40034 2.05556 1.45902 2.0149 1.50319C1.97425 1.54735 1.91809 1.57343 1.85862 1.57576Z" fill="#52BEDC"/>
</svg>
